<?xml version="1.0" standalone="no"?>
<!DOCTYPE svg PUBLIC "-//W3C//DTD SVG 20010904//EN"
 "http://www.w3.org/TR/2001/REC-SVG-20010904/DTD/svg10.dtd">
<svg version="1.0" xmlns="http://www.w3.org/2000/svg"
 width="529.000000pt" height="198.000000pt" viewBox="0 0 529.000000 198.000000"
 preserveAspectRatio="xMidYMid meet">
<metadata>
Created by potrace 1.15, written by Peter Selinger 2001-2017
</metadata>
<g transform="translate(0.000000,198.000000) scale(0.100000,-0.100000)"
fill="#000000" stroke="none">
<path d="M682 1940 l-17 -30 -332 0 -333 0 0 -160 0 -160 23 0 c13 0 44 15 68
34 121 92 240 70 320 -59 30 -47 25 -121 -10 -176 -34 -54 -67 -84 -104 -98
-64 -24 -151 -5 -205 46 -23 21 -45 33 -63 33 l-29 0 0 -375 0 -375 25 0 c16
0 39 14 61 36 45 44 70 54 145 54 81 0 122 -24 171 -99 31 -49 38 -123 16
-164 -33 -62 -79 -104 -131 -119 -73 -21 -115 -13 -176 33 -33 25 -62 39 -81
39 l-31 0 3 -158 3 -157 332 -3 c316 -2 332 -3 338 -21 3 -12 25 -26 52 -35
42 -14 238 -16 1908 -16 1663 0 1867 2 1914 16 36 10 55 22 58 35 5 18 20 19
342 21 l336 3 3 158 3 157 -40 0 c-23 0 -44 -6 -51 -15 -50 -60 -129 -82 -205
-58 -59 19 -70 26 -107 77 -24 34 -28 48 -28 108 0 127 70 198 195 198 71 0
109 -15 140 -56 25 -33 46 -40 79 -28 14 5 16 48 16 375 l0 369 -36 0 c-27 0
-41 -7 -60 -29 -31 -38 -111 -65 -170 -58 -53 6 -121 54 -147 104 -11 22 -17
57 -17 102 0 59 4 73 28 107 33 45 104 84 154 84 52 0 122 -27 153 -60 28 -30
49 -36 79 -24 14 5 16 29 16 160 l0 154 -333 0 -333 0 -22 30 -23 30 -1940 0
-1940 0 -17 -30z m2528 -25 l0 -35 -1241 0 -1241 0 6 23 c3 12 6 28 6 35 0 9
254 12 1235 12 l1235 0 0 -35z m690 5 c229 -69 382 -176 524 -370 50 -68 118
-203 141 -280 8 -25 21 -96 30 -158 15 -103 15 -121 0 -225 -20 -139 -33 -184
-83 -289 -124 -261 -328 -433 -613 -518 -208 -62 -455 -48 -617 34 l-51 26
-376 0 -375 0 0 324 0 324 50 17 c78 26 140 113 140 195 0 85 -75 184 -148
196 l-42 7 0 323 0 324 363 0 363 0 73 35 c40 19 85 35 99 36 15 0 45 6 67 14
26 8 97 13 196 14 147 1 163 -1 259 -29z m643 23 c2 -5 7 -20 11 -35 l6 -28
-240 0 -240 0 0 35 0 35 229 0 c127 0 232 -3 234 -7z m-3883 -473 l0 -420
-320 0 -320 0 0 150 c0 168 3 173 62 117 57 -54 160 -73 231 -43 38 15 98 81
122 133 12 25 16 53 13 93 -8 106 -106 200 -207 200 -63 0 -116 -19 -160 -57
-22 -18 -44 -33 -50 -33 -7 0 -11 46 -11 140 l0 140 320 0 320 0 0 -420z
m4610 280 c0 -129 -1 -140 -18 -140 -10 0 -31 13 -47 30 -15 16 -48 36 -73 45
-105 35 -201 6 -259 -80 -29 -42 -33 -55 -33 -116 0 -86 25 -141 87 -188 34
-27 57 -35 98 -39 69 -6 146 20 179 59 14 16 34 29 45 29 20 0 21 -5 21 -150
l0 -150 -320 0 -320 0 -2 420 -3 420 323 0 322 0 0 -140z m-4560 -755 c0 -762
-2 -865 -15 -865 -13 0 -15 103 -15 865 0 762 2 865 15 865 13 0 15 -103 15
-865z m510 668 l-1 -198 -60 -40 c-68 -45 -141 -136 -185 -230 -27 -56 -28
-68 -28 -195 0 -127 2 -139 28 -195 53 -115 162 -241 224 -260 22 -6 22 -7 22
-211 l0 -204 -245 0 -245 0 0 865 0 865 245 0 245 0 0 -197z m3339 -60 l-1
-258 -37 80 c-70 147 -203 303 -330 386 l-74 49 222 0 221 0 -1 -257z m51 -18
c0 -238 -2 -275 -15 -275 -13 0 -15 37 -15 275 0 238 2 275 15 275 13 0 15
-37 15 -275z m-2150 -69 l0 -333 40 -6 c54 -7 85 -29 121 -85 40 -63 40 -121
0 -184 -34 -53 -58 -71 -118 -89 l-43 -12 0 -334 0 -333 -610 0 -610 0 0 855
0 855 610 0 610 0 0 -334z m-1240 -516 c0 -414 -1 -439 -17 -433 -60 21 -171
152 -214 253 -21 49 -24 70 -23 185 0 119 2 135 26 185 39 82 101 160 166 207
31 23 58 43 60 43 1 0 2 -198 2 -440z m-560 -5 l0 -35 -320 0 -320 0 0 35 0
35 320 0 320 0 0 -35z m4610 0 l0 -35 -320 0 -320 0 0 35 0 35 320 0 320 0 0
-35z m-4610 -475 l0 -420 -320 0 -320 0 0 140 c0 162 0 162 81 101 64 -48 116
-57 195 -33 48 15 63 25 102 75 40 51 46 65 50 116 5 65 -9 103 -58 163 -43
52 -81 68 -163 68 -80 0 -124 -17 -156 -60 -12 -17 -28 -30 -36 -30 -13 0 -15
25 -15 150 l0 150 320 0 320 0 0 -420z m4610 270 c0 -142 -1 -150 -19 -150
-11 0 -32 15 -46 34 -32 42 -69 56 -150 56 -139 0 -215 -77 -215 -218 0 -58 4
-75 28 -113 38 -58 57 -73 118 -93 80 -26 165 -5 219 54 10 11 29 20 42 20
l23 0 0 -140 0 -140 -326 0 c-293 0 -326 2 -320 16 3 9 6 198 6 420 l0 404
320 0 320 0 0 -150z m-660 -385 c0 -238 -2 -275 -15 -275 -13 0 -15 37 -15
275 0 238 2 275 15 275 13 0 15 -37 15 -275z m-50 -15 l0 -260 -232 0 -233 0
64 38 c142 83 296 258 366 415 17 36 31 67 33 67 1 0 2 -117 2 -260z m-1350
-320 l0 -40 -1225 2 c-800 2 -1227 6 -1233 13 -5 6 -12 22 -16 38 l-6 27 1240
0 1240 0 0 -40z m1342 15 c-9 -51 -28 -55 -259 -55 l-213 0 0 40 0 40 239 0
238 0 -5 -25z"/>
<path d="M3505 1634 c-116 -31 -237 -96 -318 -173 -42 -39 -91 -110 -132 -192
-52 -102 -71 -314 -39 -428 27 -97 90 -212 154 -283 69 -76 137 -121 260 -169
80 -32 92 -34 210 -34 119 0 130 2 215 34 288 111 451 361 432 665 -12 194
-136 392 -314 499 -107 65 -161 79 -313 83 -74 1 -144 0 -155 -2z m338 -42
c235 -85 409 -304 424 -534 12 -186 -45 -355 -161 -477 -79 -83 -150 -129
-261 -172 -84 -32 -98 -34 -205 -34 -106 1 -121 3 -200 34 -47 19 -111 49
-142 68 -113 67 -220 216 -262 364 -20 70 -21 203 -2 302 38 196 193 370 393
441 99 35 97 35 233 32 96 -3 138 -8 183 -24z"/>
<path d="M3525 1513 c-155 -34 -304 -164 -373 -325 -25 -58 -27 -73 -26 -193
0 -121 2 -134 28 -190 34 -73 123 -194 169 -229 49 -38 166 -83 250 -97 155
-26 351 42 450 155 94 108 148 244 147 370 -1 68 -33 187 -69 254 -58 106
-201 219 -314 249 -48 12 -216 16 -262 6z m252 -26 c111 -29 258 -144 310
-244 33 -62 63 -177 63 -242 0 -61 -27 -176 -54 -230 -45 -87 -123 -167 -208
-211 -107 -56 -210 -77 -306 -61 -83 14 -200 59 -249 97 -44 33 -134 155 -163
219 -18 39 -24 75 -27 160 -5 99 -3 118 20 182 56 161 210 301 372 336 45 10
194 6 242 -6z"/>
<path d="M3560 1281 c-91 -28 -168 -102 -192 -185 -7 -23 -13 -70 -13 -107 0
-55 5 -76 34 -132 19 -37 38 -67 42 -67 5 0 23 -13 41 -28 72 -62 175 -78 271
-42 57 21 103 64 158 145 31 46 34 56 33 125 0 94 -17 139 -74 203 -60 67
-125 97 -210 96 -36 0 -76 -4 -90 -8z m190 -32 c135 -61 207 -226 150 -345
-29 -58 -97 -134 -137 -150 -61 -26 -68 -13 -9 18 40 22 72 50 100 87 41 54
41 55 41 140 0 85 -1 88 -39 139 -23 32 -59 65 -90 82 -43 25 -62 30 -122 30
-99 0 -166 -34 -210 -108 -56 -92 -56 -192 0 -284 26 -44 42 -58 96 -85 45
-23 80 -33 115 -34 l50 -1 -46 -10 c-40 -8 -52 -6 -100 16 -85 41 -115 67
-144 123 -34 66 -41 118 -25 194 21 97 89 169 190 200 49 15 134 9 180 -12z
m2 -46 c175 -95 170 -315 -10 -411 -77 -41 -118 -41 -202 1 -51 25 -70 42 -94
81 -27 43 -31 58 -31 126 0 68 4 83 30 126 62 100 201 135 307 77z"/>
<path d="M1312 998 l3 -793 535 0 535 0 3 793 2 792 -540 0 -540 0 2 -792z
m1058 -3 l0 -775 -520 0 -520 0 0 775 0 775 520 0 520 0 0 -775z"/>
</g>
</svg>
