<svg id="svg" version="1.1" width="400" height="733.8345864661654" viewBox="0 0 400 733.8345864661654" xmlns="http://www.w3.org/2000/svg" xmlns:xlink="http://www.w3.org/1999/xlink" ><g id="svgg"><path id="path0" d="M181.400 46.800 C 181.179 47.497,180.795 47.600,178.416 47.600 C 176.358 47.600,175.629 47.748,175.455 48.200 C 175.292 48.625,174.628 48.800,173.175 48.800 C 171.462 48.800,171.091 48.931,170.916 49.600 C 170.739 50.275,170.370 50.400,168.553 50.400 C 166.667 50.400,166.400 50.499,166.400 51.200 C 166.400 51.895,166.133 52.000,164.363 52.000 C 162.662 52.000,162.291 52.132,162.116 52.800 C 161.958 53.403,161.570 53.600,160.541 53.600 C 159.696 53.600,159.087 53.829,158.945 54.200 C 158.818 54.530,158.447 54.800,158.120 54.800 C 157.793 54.800,157.431 55.160,157.316 55.600 C 157.159 56.201,156.770 56.400,155.753 56.400 C 154.667 56.400,154.400 56.558,154.400 57.200 C 154.400 57.822,154.133 58.000,153.203 58.000 C 152.440 58.000,151.826 58.290,151.507 58.800 C 151.232 59.240,150.691 59.600,150.304 59.600 C 149.917 59.600,149.600 59.870,149.600 60.200 C 149.600 60.530,149.330 60.800,149.000 60.800 C 148.667 60.800,148.400 61.156,148.400 61.600 C 148.400 62.187,148.133 62.400,147.400 62.400 C 146.850 62.400,146.040 62.760,145.600 63.200 C 145.160 63.640,144.530 64.000,144.200 64.000 C 143.867 64.000,143.600 64.356,143.600 64.800 C 143.600 65.244,143.333 65.600,143.000 65.600 C 142.670 65.600,142.400 65.870,142.400 66.200 C 142.400 66.533,142.044 66.800,141.600 66.800 C 141.067 66.800,140.800 67.067,140.800 67.600 C 140.800 68.133,140.533 68.400,140.000 68.400 C 139.467 68.400,139.200 68.667,139.200 69.200 C 139.200 69.733,138.933 70.000,138.400 70.000 C 137.863 70.000,137.600 70.267,137.600 70.813 C 137.600 71.259,137.341 71.724,137.024 71.846 C 136.708 71.967,136.334 72.592,136.193 73.233 C 136.052 73.875,135.681 74.400,135.368 74.400 C 135.056 74.400,134.800 74.760,134.800 75.200 C 134.800 75.733,134.533 76.000,134.000 76.000 C 133.556 76.000,133.200 76.267,133.200 76.600 C 133.200 76.930,132.840 77.560,132.400 78.000 C 131.960 78.440,131.600 79.139,131.600 79.553 C 131.600 79.970,131.243 80.400,130.800 80.516 C 130.187 80.676,130.000 81.062,130.000 82.163 C 130.000 83.174,129.822 83.600,129.400 83.600 C 129.067 83.600,128.800 83.956,128.800 84.400 C 128.800 84.933,128.533 85.200,128.000 85.200 C 127.363 85.200,127.200 85.467,127.200 86.511 C 127.200 87.327,126.898 88.081,126.400 88.507 C 125.854 88.974,125.600 89.687,125.600 90.749 C 125.600 91.970,125.427 92.352,124.800 92.516 C 124.120 92.694,124.000 93.062,124.000 94.963 C 124.000 96.685,123.862 97.200,123.400 97.200 C 122.941 97.200,122.800 97.706,122.800 99.353 C 122.800 101.170,122.675 101.539,122.000 101.716 C 121.278 101.905,121.200 102.262,121.200 105.363 C 121.200 108.267,121.076 108.924,120.400 109.600 C 119.639 110.361,119.600 110.933,119.600 121.269 C 119.600 131.059,119.531 132.214,118.900 132.909 C 118.292 133.581,118.184 134.738,118.076 141.739 C 117.976 148.240,117.840 149.858,117.376 150.118 C 116.902 150.383,116.800 151.989,116.800 159.173 C 116.800 167.570,116.769 167.915,116.000 168.116 C 115.230 168.317,115.200 168.662,115.200 177.163 C 115.200 185.467,115.152 186.048,114.400 186.800 C 113.653 187.547,113.600 188.133,113.600 195.656 C 113.600 202.867,113.527 203.765,112.900 204.223 C 112.279 204.677,112.185 205.694,112.070 213.267 C 111.966 220.139,111.829 221.862,111.370 222.120 C 110.904 222.382,110.800 224.035,110.800 231.220 C 110.800 239.733,110.776 240.000,110.000 240.000 C 109.226 240.000,109.200 240.267,109.200 248.200 C 109.200 255.867,109.148 256.452,108.400 257.200 C 107.652 257.948,107.600 258.533,107.600 266.180 C 107.600 273.555,107.531 274.399,106.900 274.751 C 106.274 275.101,106.186 276.042,106.071 283.595 C 105.966 290.461,105.834 292.089,105.371 292.267 C 104.902 292.446,104.800 293.960,104.800 300.747 C 104.800 308.574,104.758 309.034,104.000 309.507 C 103.240 309.982,103.200 310.440,103.200 318.603 C 103.200 325.685,103.102 327.200,102.643 327.200 C 101.705 327.200,101.600 328.169,101.600 336.786 C 101.600 344.770,101.568 345.115,100.800 345.316 C 100.033 345.516,100.000 345.862,100.000 353.631 C 100.000 360.790,99.918 361.827,99.300 362.510 C 98.690 363.182,98.584 364.346,98.476 371.538 C 98.376 378.217,98.242 379.856,97.776 380.117 C 97.302 380.382,97.200 381.971,97.200 389.057 C 97.200 397.338,97.169 397.683,96.400 397.884 C 95.633 398.085,95.600 398.430,95.600 406.247 C 95.600 413.867,95.548 414.452,94.800 415.200 C 94.053 415.947,94.000 416.533,94.000 424.056 C 94.000 431.267,93.927 432.165,93.300 432.623 C 92.678 433.077,92.586 434.089,92.477 441.664 C 92.377 448.585,92.245 450.255,91.777 450.517 C 91.304 450.781,91.200 452.285,91.200 458.820 C 91.200 466.267,91.147 466.853,90.400 467.600 C 89.652 468.348,89.600 468.933,89.600 476.600 C 89.600 484.267,89.548 484.852,88.800 485.600 C 88.051 486.349,88.000 486.933,88.000 494.800 C 88.000 501.685,87.900 503.200,87.447 503.200 C 86.563 503.200,86.411 504.545,86.405 512.451 C 86.401 518.581,86.294 519.990,85.800 520.400 C 85.310 520.806,85.200 522.131,85.200 527.602 C 85.200 533.970,85.160 534.317,84.400 534.516 C 83.696 534.700,83.600 535.062,83.600 537.536 C 83.600 539.995,83.500 540.378,82.800 540.600 C 82.082 540.828,82.000 541.205,82.000 544.283 C 82.000 547.087,81.872 547.805,81.300 548.223 C 80.123 549.083,80.017 573.285,81.183 574.863 C 81.856 575.772,82.000 576.572,82.000 579.384 C 82.000 582.267,82.125 582.925,82.800 583.600 C 83.422 584.222,83.600 584.933,83.600 586.797 C 83.600 588.760,83.745 589.284,84.400 589.693 C 85.035 590.090,85.200 590.626,85.200 592.296 C 85.200 593.900,85.343 594.400,85.800 594.400 C 86.262 594.400,86.400 594.915,86.400 596.637 C 86.400 598.538,86.520 598.906,87.200 599.084 C 87.865 599.258,88.000 599.630,88.000 601.284 C 88.000 602.938,88.135 603.310,88.800 603.484 C 89.401 603.641,89.600 604.030,89.600 605.047 C 89.600 606.133,89.758 606.400,90.400 606.400 C 91.067 606.400,91.200 606.667,91.200 608.000 C 91.200 609.156,91.367 609.600,91.800 609.600 C 92.219 609.600,92.400 610.022,92.400 611.000 C 92.400 612.133,92.552 612.400,93.200 612.400 C 93.867 612.400,94.000 612.667,94.000 614.000 C 94.000 615.333,94.133 615.600,94.800 615.600 C 95.448 615.600,95.600 615.867,95.600 617.000 C 95.600 618.133,95.752 618.400,96.400 618.400 C 96.933 618.400,97.200 618.667,97.200 619.200 C 97.200 619.644,97.467 620.000,97.800 620.000 C 98.222 620.000,98.400 620.426,98.400 621.437 C 98.400 622.538,98.587 622.924,99.200 623.084 C 99.643 623.200,100.000 623.630,100.000 624.047 C 100.000 624.533,100.283 624.800,100.800 624.800 C 101.448 624.800,101.600 625.067,101.600 626.200 C 101.600 627.333,101.752 627.600,102.400 627.600 C 102.933 627.600,103.200 627.867,103.200 628.400 C 103.200 628.933,103.467 629.200,104.000 629.200 C 104.533 629.200,104.800 629.467,104.800 630.000 C 104.800 630.444,105.067 630.800,105.400 630.800 C 105.730 630.800,106.000 631.145,106.000 631.567 C 106.000 632.759,106.431 633.600,107.043 633.600 C 107.349 633.600,107.600 633.887,107.600 634.237 C 107.600 634.588,107.960 634.969,108.400 635.084 C 108.843 635.200,109.200 635.630,109.200 636.047 C 109.200 636.533,109.483 636.800,110.000 636.800 C 110.444 636.800,110.800 637.067,110.800 637.400 C 110.800 637.730,111.070 638.000,111.400 638.000 C 111.733 638.000,112.000 638.356,112.000 638.800 C 112.000 639.333,112.267 639.600,112.800 639.600 C 113.333 639.600,113.600 639.867,113.600 640.400 C 113.600 640.933,113.867 641.200,114.400 641.200 C 114.933 641.200,115.200 641.467,115.200 642.000 C 115.200 642.533,115.467 642.800,116.000 642.800 C 116.444 642.800,116.800 643.067,116.800 643.400 C 116.800 643.730,117.070 644.000,117.400 644.000 C 117.730 644.000,118.000 644.276,118.000 644.613 C 118.000 644.949,118.315 645.343,118.700 645.486 C 119.085 645.630,119.635 646.074,119.923 646.474 C 120.224 646.893,120.944 647.200,121.623 647.200 C 122.533 647.200,122.800 647.381,122.800 648.000 C 122.800 648.444,123.067 648.800,123.400 648.800 C 123.730 648.800,124.000 649.070,124.000 649.400 C 124.000 649.730,124.339 650.000,124.753 650.000 C 125.170 650.000,125.600 650.357,125.716 650.800 C 125.876 651.413,126.262 651.600,127.363 651.600 C 128.533 651.600,128.800 651.748,128.800 652.400 C 128.800 652.840,129.027 653.200,129.304 653.200 C 129.581 653.200,130.032 653.560,130.307 654.000 C 130.626 654.510,131.240 654.800,132.003 654.800 C 132.800 654.800,133.200 655.000,133.200 655.400 C 133.200 655.730,133.517 656.000,133.904 656.000 C 134.291 656.000,134.832 656.360,135.107 656.800 C 135.382 657.240,136.034 657.600,136.557 657.600 C 137.170 657.600,137.581 657.883,137.716 658.400 C 137.875 659.006,138.262 659.200,139.316 659.200 C 140.370 659.200,140.757 659.394,140.916 660.000 C 141.068 660.583,141.462 660.800,142.363 660.800 C 143.196 660.800,143.600 660.996,143.600 661.400 C 143.600 661.833,144.044 662.000,145.200 662.000 C 146.267 662.000,147.067 662.267,147.600 662.800 C 148.085 663.285,148.933 663.600,149.753 663.600 C 150.770 663.600,151.159 663.799,151.316 664.400 C 151.490 665.065,151.862 665.200,153.516 665.200 C 155.170 665.200,155.542 665.335,155.716 666.000 C 155.894 666.680,156.262 666.800,158.163 666.800 C 159.808 666.800,160.400 666.947,160.400 667.357 C 160.400 668.141,161.303 668.400,164.033 668.400 C 165.870 668.400,166.400 668.534,166.400 669.000 C 166.400 669.497,167.150 669.600,170.753 669.600 C 174.770 669.600,175.123 669.662,175.316 670.400 C 175.520 671.182,175.862 671.200,190.301 671.200 C 204.568 671.200,205.101 671.172,205.800 670.400 C 206.420 669.714,207.032 669.600,210.075 669.600 C 212.862 669.600,213.675 669.471,213.855 669.000 C 214.020 668.572,214.688 668.400,216.189 668.400 C 217.686 668.400,218.585 668.170,219.309 667.600 C 220.051 667.017,220.932 666.800,222.563 666.800 C 224.533 666.800,224.800 666.705,224.800 666.000 C 224.800 665.297,225.067 665.200,227.000 665.200 C 228.933 665.200,229.200 665.103,229.200 664.400 C 229.200 663.733,229.467 663.600,230.800 663.600 C 232.133 663.600,232.400 663.467,232.400 662.800 C 232.400 662.106,232.667 662.000,234.413 662.000 C 235.832 662.000,236.493 661.823,236.655 661.400 C 236.786 661.059,237.383 660.800,238.039 660.800 C 238.760 660.800,239.381 660.500,239.693 660.000 C 239.968 659.560,240.494 659.200,240.864 659.200 C 241.966 659.200,242.800 658.751,242.800 658.157 C 242.800 657.851,243.160 657.600,243.600 657.600 C 244.133 657.600,244.400 657.333,244.400 656.800 C 244.400 656.152,244.667 656.000,245.800 656.000 C 246.778 656.000,247.200 655.819,247.200 655.400 C 247.200 655.032,247.574 654.800,248.167 654.800 C 249.517 654.800,250.400 654.406,250.400 653.804 C 250.400 653.523,250.760 653.199,251.200 653.084 C 251.640 652.969,252.000 652.588,252.000 652.237 C 252.000 651.876,252.332 651.600,252.767 651.600 C 253.959 651.600,254.800 651.169,254.800 650.557 C 254.800 650.251,255.160 650.000,255.600 650.000 C 256.040 650.000,256.400 649.751,256.400 649.447 C 256.400 649.142,256.760 648.799,257.200 648.684 C 257.640 648.569,258.000 648.188,258.000 647.837 C 258.000 647.487,258.270 647.200,258.600 647.200 C 258.933 647.200,259.200 646.844,259.200 646.400 C 259.200 645.748,259.467 645.600,260.637 645.600 C 261.738 645.600,262.124 645.413,262.284 644.800 C 262.400 644.357,262.830 644.000,263.247 644.000 C 263.661 644.000,264.000 643.751,264.000 643.447 C 264.000 643.142,264.360 642.799,264.800 642.684 C 265.240 642.569,265.600 642.188,265.600 641.837 C 265.600 641.487,265.870 641.200,266.200 641.200 C 266.533 641.200,266.800 640.844,266.800 640.400 C 266.800 639.867,267.067 639.600,267.600 639.600 C 268.133 639.600,268.400 639.333,268.400 638.800 C 268.400 638.267,268.667 638.000,269.200 638.000 C 269.640 638.000,270.000 637.751,270.000 637.447 C 270.000 637.142,270.360 636.799,270.800 636.684 C 271.240 636.569,271.600 636.188,271.600 635.837 C 271.600 635.487,271.870 635.200,272.200 635.200 C 272.589 635.200,272.800 634.810,272.800 634.088 C 272.800 633.435,273.130 632.739,273.600 632.400 C 274.040 632.083,274.400 631.593,274.400 631.312 C 274.400 631.030,274.760 630.800,275.200 630.800 C 275.717 630.800,276.000 630.533,276.000 630.047 C 276.000 629.630,276.357 629.200,276.800 629.084 C 277.240 628.969,277.600 628.588,277.600 628.237 C 277.600 627.887,277.870 627.600,278.200 627.600 C 278.619 627.600,278.800 627.178,278.800 626.200 C 278.800 625.067,278.952 624.800,279.600 624.800 C 280.133 624.800,280.400 624.533,280.400 624.000 C 280.400 623.467,280.667 623.200,281.200 623.200 C 281.867 623.200,282.000 622.933,282.000 621.600 C 282.000 620.267,282.133 620.000,282.800 620.000 C 283.333 620.000,283.600 619.733,283.600 619.200 C 283.600 618.756,283.867 618.400,284.200 618.400 C 284.619 618.400,284.800 617.978,284.800 617.000 C 284.800 615.867,284.952 615.600,285.600 615.600 C 286.267 615.600,286.400 615.333,286.400 614.000 C 286.400 612.667,286.533 612.400,287.200 612.400 C 287.842 612.400,288.000 612.133,288.000 611.047 C 288.000 610.030,288.199 609.641,288.800 609.484 C 289.413 609.324,289.600 608.938,289.600 607.837 C 289.600 606.826,289.778 606.400,290.200 606.400 C 290.618 606.400,290.800 605.979,290.800 605.014 C 290.800 604.038,291.036 603.502,291.600 603.200 C 292.214 602.871,292.400 602.362,292.400 601.013 C 292.400 599.605,292.560 599.203,293.200 599.000 C 293.871 598.787,294.000 598.395,294.000 596.573 C 294.000 594.982,294.149 594.400,294.557 594.400 C 295.341 594.400,295.600 593.497,295.600 590.767 C 295.600 588.930,295.734 588.400,296.200 588.400 C 296.679 588.400,296.800 587.805,296.800 585.447 C 296.800 582.830,296.891 582.469,297.600 582.284 C 298.321 582.096,298.400 581.738,298.400 578.664 C 298.400 575.605,298.482 575.228,299.200 575.000 C 300.631 574.546,300.392 546.800,298.957 546.800 C 298.538 546.800,298.400 546.156,298.400 544.203 C 298.400 542.040,298.267 541.523,297.600 541.107 C 296.919 540.682,296.800 540.174,296.800 537.691 C 296.800 535.468,296.657 534.720,296.200 534.545 C 295.693 534.350,295.600 533.022,295.600 526.007 C 295.600 517.189,295.413 515.200,294.584 515.200 C 294.178 515.200,294.039 512.878,293.934 504.367 C 293.813 494.605,293.731 493.484,293.100 493.023 C 292.468 492.561,292.400 491.601,292.400 483.070 C 292.400 474.038,292.365 473.610,291.600 473.200 C 290.832 472.789,290.800 472.362,290.800 462.675 C 290.800 454.609,290.686 452.415,290.233 451.769 C 289.793 451.140,289.637 448.840,289.533 441.447 C 289.416 433.053,289.320 431.876,288.720 431.438 C 288.118 430.998,288.027 429.809,287.920 421.038 C 287.812 412.152,287.728 411.082,287.100 410.623 C 286.466 410.160,286.400 409.184,286.400 400.318 C 286.400 391.032,286.359 390.486,285.600 389.800 C 284.843 389.115,284.800 388.568,284.800 379.587 C 284.800 371.863,284.694 370.010,284.230 369.625 C 283.771 369.244,283.635 367.172,283.530 358.943 C 283.413 349.773,283.329 348.683,282.700 348.223 C 282.068 347.762,282.000 346.810,282.000 338.456 C 282.000 329.733,281.954 329.154,281.200 328.400 C 280.441 327.641,280.400 327.067,280.400 317.203 C 280.400 307.240,280.367 306.786,279.600 306.307 C 278.837 305.830,278.800 305.374,278.800 296.347 C 278.800 288.563,278.700 286.847,278.235 286.669 C 277.772 286.491,277.645 284.518,277.535 275.793 C 277.415 266.326,277.324 265.079,276.721 264.639 C 276.122 264.201,276.028 263.029,275.921 254.643 C 275.812 246.086,275.730 245.104,275.100 244.751 C 274.462 244.395,274.400 243.462,274.400 234.234 C 274.400 224.714,274.352 224.047,273.600 223.091 C 272.853 222.141,272.800 221.468,272.800 212.865 C 272.800 205.479,272.689 203.546,272.237 203.094 C 271.789 202.647,271.645 200.445,271.537 192.433 C 271.414 183.373,271.328 182.282,270.700 181.823 C 270.068 181.361,270.000 180.400,270.000 171.859 C 270.000 162.840,269.963 162.384,269.200 161.907 C 268.434 161.429,268.400 160.974,268.400 151.358 C 268.400 141.914,268.352 141.247,267.600 140.291 C 266.850 139.338,266.800 138.668,266.800 129.624 C 266.800 121.416,266.710 119.941,266.200 119.745 C 265.703 119.554,265.600 118.461,265.600 113.357 C 265.600 107.733,265.531 107.131,264.800 106.400 C 264.162 105.762,264.000 105.067,264.000 102.963 C 264.000 100.662,263.898 100.298,263.200 100.116 C 262.499 99.933,262.400 99.570,262.400 97.180 C 262.400 94.805,262.297 94.421,261.600 94.200 C 261.005 94.011,260.800 93.595,260.800 92.573 C 260.800 91.467,260.645 91.200,260.000 91.200 C 259.333 91.200,259.200 90.933,259.200 89.600 C 259.200 88.444,259.033 88.000,258.600 88.000 C 258.181 88.000,258.000 87.578,258.000 86.600 C 258.000 85.467,257.848 85.200,257.200 85.200 C 256.533 85.200,256.400 84.933,256.400 83.600 C 256.400 82.267,256.267 82.000,255.600 82.000 C 254.952 82.000,254.800 81.733,254.800 80.600 C 254.800 79.467,254.648 79.200,254.000 79.200 C 253.467 79.200,253.200 78.933,253.200 78.400 C 253.200 77.956,252.933 77.600,252.600 77.600 C 252.267 77.600,252.000 77.244,252.000 76.800 C 252.000 76.360,251.640 75.640,251.200 75.200 C 250.760 74.760,250.400 74.130,250.400 73.800 C 250.400 73.467,250.044 73.200,249.600 73.200 C 249.067 73.200,248.800 72.933,248.800 72.400 C 248.800 71.867,248.533 71.600,248.000 71.600 C 247.467 71.600,247.200 71.333,247.200 70.800 C 247.200 70.356,246.933 70.000,246.600 70.000 C 246.267 70.000,246.000 69.644,246.000 69.200 C 246.000 68.667,245.733 68.400,245.200 68.400 C 244.667 68.400,244.400 68.133,244.400 67.600 C 244.400 67.067,244.133 66.800,243.600 66.800 C 243.156 66.800,242.800 66.533,242.800 66.200 C 242.800 65.867,242.444 65.600,242.000 65.600 C 241.467 65.600,241.200 65.333,241.200 64.800 C 241.200 64.356,240.933 64.000,240.600 64.000 C 240.270 64.000,240.000 63.713,240.000 63.363 C 240.000 63.012,239.640 62.631,239.200 62.516 C 238.760 62.401,238.400 62.077,238.400 61.796 C 238.400 61.194,237.517 60.800,236.167 60.800 C 235.574 60.800,235.200 60.568,235.200 60.200 C 235.200 59.870,234.951 59.600,234.647 59.600 C 234.342 59.600,233.999 59.240,233.884 58.800 C 233.724 58.187,233.338 58.000,232.237 58.000 C 231.067 58.000,230.800 57.852,230.800 57.200 C 230.800 56.683,230.533 56.400,230.047 56.400 C 229.630 56.400,229.200 56.043,229.084 55.600 C 228.932 55.017,228.538 54.800,227.637 54.800 C 226.804 54.800,226.400 54.604,226.400 54.200 C 226.400 53.767,225.956 53.600,224.800 53.600 C 223.467 53.600,223.200 53.467,223.200 52.800 C 223.200 52.152,222.933 52.000,221.800 52.000 C 220.933 52.000,220.095 51.695,219.600 51.200 C 219.067 50.667,218.267 50.400,217.200 50.400 C 216.104 50.400,215.600 50.226,215.600 49.847 C 215.600 49.143,214.361 48.812,211.700 48.805 C 210.102 48.801,209.600 48.656,209.600 48.200 C 209.600 47.721,209.005 47.600,206.647 47.600 C 204.030 47.600,203.669 47.509,203.484 46.800 C 203.281 46.025,202.938 46.000,192.464 46.000 C 182.005 46.000,181.646 46.026,181.400 46.800 M199.835 54.027 C 204.069 54.532,210.690 56.084,214.200 57.395 C 215.740 57.970,217.450 58.588,218.000 58.770 C 223.247 60.499,233.199 67.160,238.631 72.578 C 242.241 76.179,245.200 79.682,245.200 80.356 C 245.200 80.600,245.351 80.800,245.535 80.800 C 245.874 80.800,248.971 85.353,249.888 87.200 C 250.161 87.750,250.561 88.470,250.777 88.800 C 251.128 89.336,252.340 91.994,253.788 95.400 C 256.622 102.064,257.840 108.518,258.617 120.987 C 258.933 126.039,259.362 131.979,259.572 134.187 C 259.781 136.394,260.060 140.270,260.191 142.800 C 260.322 145.330,260.605 149.290,260.821 151.600 C 261.037 153.910,261.475 159.670,261.795 164.400 C 263.135 184.201,263.609 190.845,263.994 195.200 C 264.217 197.730,264.587 203.024,264.816 206.964 C 265.045 210.905,265.295 214.235,265.371 214.364 C 265.448 214.494,265.712 218.110,265.959 222.400 C 266.206 226.690,266.594 232.090,266.821 234.400 C 267.204 238.291,267.858 247.570,268.824 262.800 C 269.040 266.210,269.477 271.790,269.796 275.200 C 270.114 278.610,270.481 283.830,270.610 286.800 C 270.740 289.770,271.095 294.630,271.398 297.600 C 271.702 300.570,272.053 305.340,272.179 308.200 C 272.305 311.060,272.672 316.280,272.994 319.800 C 273.317 323.320,273.764 329.080,273.988 332.600 C 274.468 340.142,275.066 348.643,275.607 355.600 C 275.821 358.350,276.181 363.750,276.408 367.600 C 276.635 371.450,277.082 377.300,277.401 380.600 C 277.720 383.900,278.088 389.030,278.219 392.000 C 278.350 394.970,278.622 398.815,278.823 400.543 C 279.024 402.272,279.379 406.952,279.612 410.943 C 279.844 414.935,280.297 420.974,280.617 424.364 C 280.938 427.755,281.202 431.985,281.204 433.764 C 281.206 435.544,281.472 439.250,281.795 442.000 C 282.119 444.750,282.564 450.510,282.784 454.800 C 283.005 459.090,283.364 464.130,283.581 466.000 C 283.799 467.870,284.173 473.080,284.413 477.577 C 284.652 482.074,284.923 485.876,285.015 486.025 C 285.108 486.174,285.463 490.936,285.804 496.607 C 286.146 502.278,286.495 507.030,286.580 507.167 C 286.664 507.304,286.935 511.013,287.182 515.408 C 287.783 526.126,288.687 535.069,289.588 539.200 C 292.126 550.845,292.400 553.064,292.400 562.002 C 292.400 567.791,292.218 570.158,291.442 574.473 C 290.915 577.403,290.367 580.600,290.225 581.577 C 290.082 582.554,289.726 584.174,289.432 585.177 C 289.138 586.180,288.688 587.810,288.432 588.800 C 287.351 592.975,285.337 598.823,284.791 599.369 C 284.576 599.584,284.399 600.129,284.399 600.580 C 284.398 601.031,284.038 601.989,283.599 602.710 C 283.159 603.430,282.800 604.261,282.800 604.556 C 282.800 604.851,282.440 605.550,282.000 606.109 C 281.560 606.669,281.200 607.400,281.200 607.735 C 281.200 608.069,280.954 608.589,280.653 608.890 C 280.352 609.191,279.967 609.879,279.798 610.419 C 279.628 610.958,279.155 611.829,278.745 612.354 C 278.335 612.879,278.000 613.458,278.000 613.641 C 278.000 613.934,274.930 618.675,274.400 619.200 C 274.289 619.310,273.664 620.210,273.011 621.200 C 271.890 622.900,270.086 625.225,267.425 628.399 C 263.549 633.022,250.066 645.200,248.824 645.200 C 248.591 645.200,248.400 645.384,248.400 645.610 C 248.400 645.835,247.995 646.198,247.500 646.416 C 247.005 646.633,245.340 647.607,243.800 648.579 C 212.958 668.045,170.842 669.032,140.600 650.995 C 139.720 650.471,138.640 649.848,138.200 649.613 C 136.875 648.903,129.262 643.834,127.800 642.689 C 123.237 639.113,116.156 632.211,112.198 627.480 C 110.313 625.227,108.379 622.702,107.388 621.200 C 106.734 620.210,106.062 619.220,105.894 619.000 C 104.488 617.160,100.092 609.731,98.912 607.200 C 98.156 605.579,96.936 602.879,95.361 599.340 C 95.052 598.646,94.800 597.930,94.800 597.747 C 94.800 597.565,94.452 596.512,94.027 595.408 C 93.602 594.303,92.873 592.050,92.407 590.400 C 91.941 588.750,91.373 586.801,91.143 586.069 C 90.672 584.567,89.879 580.208,88.946 574.000 C 87.363 563.465,88.582 545.839,91.574 536.005 C 92.233 533.841,93.133 526.320,93.395 520.800 C 93.525 518.050,93.809 514.630,94.025 513.200 C 94.242 511.770,94.685 507.090,95.010 502.800 C 96.227 486.754,96.778 480.100,97.182 476.600 C 97.410 474.620,97.782 470.300,98.008 467.000 C 98.233 463.700,98.508 460.550,98.618 460.000 C 98.728 459.450,99.084 455.490,99.410 451.200 C 99.735 446.910,100.361 439.260,100.802 434.200 C 101.242 429.140,101.872 421.490,102.202 417.200 C 102.532 412.910,102.972 408.050,103.181 406.400 C 103.389 404.750,103.670 401.420,103.805 399.000 C 103.939 396.580,104.229 393.191,104.448 391.469 C 104.667 389.747,105.104 384.977,105.417 380.869 C 106.902 361.442,107.192 358.023,107.563 355.600 C 107.781 354.170,108.068 350.750,108.201 348.000 C 108.333 345.250,108.689 340.840,108.992 338.200 C 109.294 335.560,109.654 331.330,109.792 328.800 C 109.931 326.270,110.219 322.850,110.434 321.200 C 110.803 318.361,111.255 312.965,112.595 295.400 C 112.914 291.220,113.353 286.630,113.569 285.200 C 113.786 283.770,114.074 280.260,114.209 277.400 C 114.344 274.540,114.699 270.400,114.999 268.200 C 115.299 266.000,115.658 261.770,115.797 258.800 C 115.937 255.830,116.234 252.230,116.459 250.800 C 116.684 249.370,117.114 244.780,117.414 240.600 C 117.715 236.420,118.149 231.020,118.379 228.600 C 119.006 222.019,119.564 215.281,120.018 208.800 C 120.242 205.610,120.687 200.840,121.007 198.200 C 121.327 195.560,121.776 190.089,122.006 186.043 C 122.236 181.996,122.505 178.554,122.604 178.393 C 122.703 178.233,123.066 174.088,123.410 169.184 C 123.754 164.279,124.111 160.144,124.203 159.995 C 124.295 159.846,124.555 156.861,124.780 153.362 C 125.006 149.863,125.455 144.390,125.778 141.200 C 126.683 132.264,127.223 124.931,127.604 116.400 C 127.946 108.746,128.968 102.676,130.350 100.093 C 130.598 99.631,130.800 98.953,130.800 98.587 C 130.800 98.221,131.056 97.354,131.370 96.660 C 131.683 95.967,132.502 94.089,133.190 92.487 C 139.708 77.305,153.876 63.958,169.800 57.997 C 174.496 56.240,175.041 56.069,178.600 55.244 C 186.726 53.361,191.810 53.069,199.835 54.027 M189.800 99.442 C 167.875 102.429,165.679 131.484,186.813 138.959 C 195.071 141.879,208.279 135.541,210.589 127.550 C 210.740 127.027,211.154 125.970,211.510 125.200 C 213.561 120.757,212.012 112.781,208.015 107.211 C 204.227 101.931,196.311 98.555,189.800 99.442 M198.000 108.230 C 198.000 108.544,198.258 108.800,198.573 108.800 C 198.888 108.800,199.260 109.160,199.400 109.600 C 199.540 110.040,199.846 110.400,200.081 110.400 C 200.691 110.400,202.400 112.331,202.400 113.021 C 202.400 113.339,202.760 113.600,203.200 113.600 C 203.891 113.600,204.000 113.867,204.000 115.557 C 204.000 116.928,204.180 117.583,204.600 117.745 C 204.992 117.895,205.200 118.518,205.200 119.545 C 205.200 120.571,204.992 121.194,204.600 121.345 C 204.177 121.507,204.000 122.168,204.000 123.587 C 204.000 125.333,203.894 125.600,203.200 125.600 C 202.683 125.600,202.400 125.867,202.400 126.353 C 202.400 126.770,202.043 127.200,201.600 127.316 C 201.160 127.431,200.800 127.812,200.800 128.163 C 200.800 128.513,200.524 128.800,200.187 128.800 C 199.851 128.800,199.471 129.070,199.345 129.400 C 199.218 129.730,198.864 130.000,198.557 130.000 C 198.251 130.000,198.000 130.360,198.000 130.800 C 198.000 131.560,197.733 131.600,192.647 131.600 C 187.630 131.600,187.280 131.550,187.084 130.800 C 186.932 130.217,186.538 130.000,185.637 130.000 C 184.804 130.000,184.400 129.804,184.400 129.400 C 184.400 129.067,184.044 128.800,183.600 128.800 C 183.067 128.800,182.800 128.533,182.800 128.000 C 182.800 127.467,182.533 127.200,182.000 127.200 C 181.333 127.200,181.200 126.933,181.200 125.600 C 181.200 124.267,181.067 124.000,180.400 124.000 C 179.649 124.000,179.600 123.733,179.600 119.647 C 179.600 115.630,179.662 115.277,180.400 115.084 C 181.013 114.924,181.200 114.538,181.200 113.437 C 181.200 112.267,181.348 112.000,182.000 112.000 C 182.533 112.000,182.800 111.733,182.800 111.200 C 182.800 110.667,183.067 110.400,183.600 110.400 C 184.133 110.400,184.400 110.133,184.400 109.600 C 184.400 108.952,184.667 108.800,185.800 108.800 C 186.756 108.800,187.200 108.616,187.200 108.220 C 187.200 107.554,189.837 107.317,194.900 107.530 C 197.254 107.630,198.000 107.798,198.000 108.230 M188.525 180.181 C 186.943 180.445,185.380 180.885,185.050 181.158 C 184.721 181.432,183.996 181.778,183.441 181.928 C 181.645 182.412,178.190 185.245,176.379 187.719 C 166.518 201.188,175.706 220.000,192.146 220.000 C 196.440 220.000,199.001 219.232,203.756 216.518 C 204.925 215.851,209.200 211.575,209.200 211.073 C 209.200 210.848,209.433 210.379,209.719 210.031 C 211.396 207.990,212.200 204.662,212.190 199.800 C 212.180 194.823,212.132 194.621,209.892 190.048 C 208.547 187.302,203.022 182.000,201.505 182.000 C 201.215 182.000,200.590 181.728,200.115 181.396 C 199.315 180.835,193.361 179.560,192.000 179.658 C 191.670 179.681,190.106 179.917,188.525 180.181 M196.516 188.000 C 196.668 188.583,197.062 188.800,197.963 188.800 C 198.796 188.800,199.200 188.996,199.200 189.400 C 199.200 189.733,199.556 190.000,200.000 190.000 C 200.533 190.000,200.800 190.267,200.800 190.800 C 200.800 191.333,201.067 191.600,201.600 191.600 C 202.133 191.600,202.400 191.867,202.400 192.400 C 202.400 192.933,202.667 193.200,203.200 193.200 C 203.864 193.200,204.000 193.467,204.000 194.771 C 204.000 195.636,204.270 196.613,204.600 196.943 C 204.999 197.342,205.200 198.341,205.200 199.929 C 205.200 201.680,205.041 202.376,204.600 202.545 C 204.177 202.707,204.000 203.368,204.000 204.787 C 204.000 206.533,203.894 206.800,203.200 206.800 C 202.667 206.800,202.400 207.067,202.400 207.600 C 202.400 208.133,202.133 208.400,201.600 208.400 C 201.067 208.400,200.800 208.667,200.800 209.200 C 200.800 209.733,200.533 210.000,200.000 210.000 C 199.556 210.000,199.200 210.267,199.200 210.600 C 199.200 211.019,198.778 211.200,197.800 211.200 C 196.667 211.200,196.400 211.352,196.400 212.000 C 196.400 212.744,196.133 212.800,192.600 212.800 C 189.067 212.800,188.800 212.744,188.800 212.000 C 188.800 211.333,188.533 211.200,187.200 211.200 C 186.044 211.200,185.600 211.033,185.600 210.600 C 185.600 210.270,185.330 210.000,185.000 210.000 C 184.670 210.000,184.400 209.713,184.400 209.363 C 184.400 209.012,184.040 208.631,183.600 208.516 C 183.157 208.400,182.800 207.970,182.800 207.553 C 182.800 207.067,182.517 206.800,182.000 206.800 C 181.348 206.800,181.200 206.533,181.200 205.363 C 181.200 204.262,181.013 203.876,180.400 203.716 C 179.672 203.525,179.600 203.170,179.600 199.753 C 179.600 196.267,179.657 196.000,180.400 196.000 C 181.048 196.000,181.200 195.733,181.200 194.600 C 181.200 193.467,181.352 193.200,182.000 193.200 C 182.533 193.200,182.800 192.933,182.800 192.400 C 182.800 191.935,183.067 191.600,183.437 191.600 C 183.788 191.600,184.169 191.240,184.284 190.800 C 184.399 190.360,184.742 190.000,185.047 190.000 C 185.351 190.000,185.600 189.730,185.600 189.400 C 185.600 188.978,186.026 188.800,187.037 188.800 C 188.138 188.800,188.524 188.613,188.684 188.000 C 188.874 187.273,189.230 187.200,192.600 187.200 C 195.970 187.200,196.326 187.273,196.516 188.000 M189.800 260.162 C 189.580 260.245,188.320 260.629,187.000 261.014 C 169.472 266.130,167.183 289.842,183.400 298.304 C 190.954 302.245,200.438 300.710,206.600 294.547 C 208.799 292.349,209.106 291.897,211.059 288.000 C 212.599 284.926,212.739 275.626,211.285 273.006 C 210.798 272.129,210.400 271.283,210.400 271.126 C 210.400 269.809,205.841 264.942,202.800 263.013 C 199.943 261.201,191.784 259.411,189.800 260.162 M198.116 269.200 C 198.268 269.783,198.662 270.000,199.563 270.000 C 200.396 270.000,200.800 270.196,200.800 270.600 C 200.800 270.933,201.156 271.200,201.600 271.200 C 202.252 271.200,202.400 271.467,202.400 272.637 C 202.400 273.738,202.587 274.124,203.200 274.284 C 203.801 274.441,204.000 274.830,204.000 275.847 C 204.000 276.783,204.185 277.200,204.600 277.200 C 205.083 277.200,205.200 277.822,205.200 280.400 C 205.200 282.978,205.083 283.600,204.600 283.600 C 204.181 283.600,204.000 284.022,204.000 285.000 C 204.000 286.133,203.848 286.400,203.200 286.400 C 202.533 286.400,202.400 286.667,202.400 288.000 C 202.400 289.562,202.367 289.600,201.000 289.600 C 200.022 289.600,199.600 289.781,199.600 290.200 C 199.600 290.533,199.244 290.800,198.800 290.800 C 198.267 290.800,198.000 291.067,198.000 291.600 C 198.000 292.360,197.733 292.400,192.647 292.400 C 187.630 292.400,187.280 292.350,187.084 291.600 C 186.932 291.017,186.538 290.800,185.637 290.800 C 184.804 290.800,184.400 290.604,184.400 290.200 C 184.400 289.867,184.044 289.600,183.600 289.600 C 182.948 289.600,182.800 289.333,182.800 288.163 C 182.800 287.062,182.613 286.676,182.000 286.516 C 181.426 286.366,181.200 285.970,181.200 285.116 C 181.200 284.262,180.974 283.866,180.400 283.716 C 179.687 283.529,179.600 283.170,179.600 280.400 C 179.600 277.630,179.687 277.271,180.400 277.084 C 180.974 276.934,181.200 276.538,181.200 275.684 C 181.200 274.830,181.426 274.434,182.000 274.284 C 182.613 274.124,182.800 273.738,182.800 272.637 C 182.800 271.467,182.948 271.200,183.600 271.200 C 184.044 271.200,184.400 270.933,184.400 270.600 C 184.400 270.196,184.804 270.000,185.637 270.000 C 186.538 270.000,186.932 269.783,187.084 269.200 C 187.280 268.451,187.630 268.400,192.600 268.400 C 197.570 268.400,197.920 268.451,198.116 269.200 M184.991 531.968 C 182.592 532.353,178.418 533.829,176.200 535.076 C 175.320 535.571,173.954 536.330,173.165 536.763 C 170.126 538.430,165.280 544.038,163.282 548.200 C 162.754 549.300,162.066 550.716,161.753 551.346 C 159.320 556.248,159.884 567.969,162.871 574.600 C 163.718 576.480,166.226 580.205,167.869 582.024 C 170.377 584.800,176.411 589.196,177.723 589.202 C 177.985 589.204,178.740 589.487,179.400 589.832 C 185.266 592.895,195.480 592.536,203.000 589.002 C 222.597 579.792,226.312 553.245,210.000 538.975 C 209.010 538.109,208.109 537.281,207.999 537.136 C 207.545 536.542,202.132 533.956,199.281 532.972 C 195.936 531.817,188.975 531.328,184.991 531.968 M195.200 539.600 C 195.527 540.212,196.038 540.400,197.367 540.400 C 198.770 540.400,199.147 540.555,199.316 541.200 C 199.475 541.806,199.862 542.000,200.916 542.000 C 201.970 542.000,202.357 542.194,202.516 542.800 C 202.631 543.240,203.012 543.600,203.363 543.600 C 203.713 543.600,204.000 543.870,204.000 544.200 C 204.000 544.530,204.287 544.800,204.637 544.800 C 204.988 544.800,205.369 545.160,205.484 545.600 C 205.599 546.040,205.921 546.400,206.200 546.400 C 206.479 546.400,206.801 546.760,206.916 547.200 C 207.031 547.640,207.412 548.000,207.763 548.000 C 208.133 548.000,208.400 548.335,208.400 548.800 C 208.400 549.333,208.667 549.600,209.200 549.600 C 209.848 549.600,210.000 549.867,210.000 551.000 C 210.000 551.978,210.181 552.400,210.600 552.400 C 211.014 552.400,211.200 552.815,211.200 553.738 C 211.200 554.568,211.504 555.351,212.000 555.800 C 212.720 556.452,212.800 557.032,212.800 561.600 C 212.800 566.168,212.720 566.748,212.000 567.400 C 211.553 567.804,211.200 568.632,211.200 569.275 C 211.200 569.928,210.941 570.525,210.600 570.655 C 210.230 570.797,210.000 571.405,210.000 572.243 C 210.000 573.333,209.843 573.600,209.200 573.600 C 208.533 573.600,208.400 573.867,208.400 575.200 C 208.400 576.533,208.267 576.800,207.600 576.800 C 207.156 576.800,206.800 577.067,206.800 577.400 C 206.800 577.733,206.444 578.000,206.000 578.000 C 205.467 578.000,205.200 578.267,205.200 578.800 C 205.200 579.428,204.933 579.600,203.963 579.600 C 203.062 579.600,202.668 579.817,202.516 580.400 C 202.400 580.843,201.970 581.200,201.553 581.200 C 201.067 581.200,200.800 581.483,200.800 582.000 C 200.800 582.703,200.533 582.800,198.600 582.800 C 196.911 582.800,196.400 582.939,196.400 583.400 C 196.400 583.908,195.444 584.000,190.200 584.000 C 184.956 584.000,184.000 583.908,184.000 583.400 C 184.000 582.939,183.489 582.800,181.800 582.800 C 179.867 582.800,179.600 582.703,179.600 582.000 C 179.600 581.483,179.333 581.200,178.847 581.200 C 178.430 581.200,178.000 580.843,177.884 580.400 C 177.732 579.817,177.338 579.600,176.437 579.600 C 175.467 579.600,175.200 579.428,175.200 578.800 C 175.200 578.267,174.933 578.000,174.400 578.000 C 173.956 578.000,173.600 577.733,173.600 577.400 C 173.600 577.067,173.244 576.800,172.800 576.800 C 172.133 576.800,172.000 576.533,172.000 575.200 C 172.000 574.104,171.826 573.600,171.447 573.600 C 171.142 573.600,170.799 573.240,170.684 572.800 C 170.569 572.360,170.188 572.000,169.837 572.000 C 169.338 572.000,169.200 571.560,169.200 569.963 C 169.200 568.262,169.068 567.891,168.400 567.716 C 167.646 567.519,167.600 567.170,167.600 561.600 C 167.600 556.030,167.646 555.681,168.400 555.484 C 169.013 555.324,169.200 554.938,169.200 553.837 C 169.200 552.875,169.384 552.400,169.757 552.400 C 170.369 552.400,170.800 551.559,170.800 550.367 C 170.800 549.945,171.070 549.600,171.400 549.600 C 171.730 549.600,172.000 549.252,172.000 548.827 C 172.000 548.402,172.360 547.940,172.800 547.800 C 173.395 547.611,173.600 547.195,173.600 546.173 C 173.600 545.191,173.779 544.800,174.229 544.800 C 174.574 544.800,175.127 544.530,175.457 544.200 C 175.787 543.870,176.494 543.600,177.029 543.600 C 177.733 543.600,178.000 543.380,178.000 542.800 C 178.000 542.133,178.267 542.000,179.600 542.000 C 180.933 542.000,181.200 541.867,181.200 541.200 C 181.200 540.542,181.467 540.400,182.704 540.400 C 183.774 540.400,184.351 540.170,184.707 539.600 C 185.162 538.872,185.640 538.800,189.989 538.800 C 194.362 538.800,194.809 538.868,195.200 539.600 " stroke="none" fill="#000000" fill-rule="evenodd"></path><path id="path1" d="M190.600 53.473 C 185.209 53.817,177.153 55.294,173.600 56.589 C 163.482 60.276,159.014 62.700,151.800 68.417 C 144.028 74.576,136.948 83.734,133.190 92.487 C 132.502 94.089,131.683 95.967,131.370 96.660 C 131.056 97.354,130.800 98.221,130.800 98.587 C 130.800 98.953,130.598 99.631,130.350 100.093 C 128.968 102.676,127.946 108.746,127.604 116.400 C 127.223 124.931,126.683 132.264,125.778 141.200 C 125.455 144.390,125.006 149.863,124.780 153.362 C 124.555 156.861,124.295 159.846,124.203 159.995 C 124.111 160.144,123.754 164.279,123.410 169.184 C 123.066 174.088,122.703 178.233,122.604 178.393 C 122.505 178.554,122.236 181.996,122.006 186.043 C 121.776 190.089,121.327 195.560,121.007 198.200 C 120.687 200.840,120.242 205.610,120.018 208.800 C 119.564 215.281,119.006 222.019,118.379 228.600 C 118.149 231.020,117.715 236.420,117.414 240.600 C 117.114 244.780,116.684 249.370,116.459 250.800 C 116.234 252.230,115.937 255.830,115.797 258.800 C 115.658 261.770,115.299 266.000,114.999 268.200 C 114.699 270.400,114.344 274.540,114.209 277.400 C 114.074 280.260,113.786 283.770,113.569 285.200 C 113.353 286.630,112.914 291.220,112.595 295.400 C 111.255 312.965,110.803 318.361,110.434 321.200 C 110.219 322.850,109.931 326.270,109.792 328.800 C 109.654 331.330,109.294 335.560,108.992 338.200 C 108.689 340.840,108.333 345.250,108.201 348.000 C 108.068 350.750,107.781 354.170,107.563 355.600 C 107.192 358.023,106.902 361.442,105.417 380.869 C 105.104 384.977,104.667 389.747,104.448 391.469 C 104.229 393.191,103.939 396.580,103.805 399.000 C 103.670 401.420,103.389 404.750,103.181 406.400 C 102.972 408.050,102.532 412.910,102.202 417.200 C 101.872 421.490,101.242 429.140,100.802 434.200 C 100.361 439.260,99.735 446.910,99.410 451.200 C 99.084 455.490,98.728 459.450,98.618 460.000 C 98.508 460.550,98.233 463.700,98.008 467.000 C 97.782 470.300,97.410 474.620,97.182 476.600 C 96.778 480.100,96.227 486.754,95.010 502.800 C 94.685 507.090,94.242 511.770,94.025 513.200 C 93.809 514.630,93.525 518.050,93.395 520.800 C 93.133 526.320,92.233 533.841,91.574 536.005 C 88.582 545.839,87.363 563.465,88.946 574.000 C 89.879 580.208,90.672 584.567,91.143 586.069 C 91.373 586.801,91.941 588.750,92.407 590.400 C 92.873 592.050,93.602 594.303,94.027 595.408 C 94.452 596.512,94.800 597.565,94.800 597.747 C 94.800 597.930,95.052 598.646,95.361 599.340 C 96.936 602.879,98.156 605.579,98.912 607.200 C 100.092 609.731,104.488 617.160,105.894 619.000 C 106.062 619.220,106.734 620.210,107.388 621.200 C 108.379 622.702,110.313 625.227,112.198 627.480 C 116.156 632.211,123.237 639.113,127.800 642.689 C 129.262 643.834,136.875 648.903,138.200 649.613 C 138.640 649.848,139.720 650.471,140.600 650.995 C 170.842 669.032,212.958 668.045,243.800 648.579 C 245.340 647.607,247.005 646.633,247.500 646.416 C 247.995 646.198,248.400 645.835,248.400 645.610 C 248.400 645.384,248.591 645.200,248.824 645.200 C 250.066 645.200,263.549 633.022,267.425 628.399 C 270.086 625.225,271.890 622.900,273.011 621.200 C 273.664 620.210,274.289 619.310,274.400 619.200 C 274.930 618.675,278.000 613.934,278.000 613.641 C 278.000 613.458,278.335 612.879,278.745 612.354 C 279.155 611.829,279.628 610.958,279.798 610.419 C 279.967 609.879,280.352 609.191,280.653 608.890 C 280.954 608.589,281.200 608.069,281.200 607.735 C 281.200 607.400,281.560 606.669,282.000 606.109 C 282.440 605.550,282.800 604.851,282.800 604.556 C 282.800 604.261,283.159 603.430,283.599 602.710 C 284.038 601.989,284.398 601.031,284.399 600.580 C 284.399 600.129,284.576 599.584,284.791 599.369 C 285.337 598.823,287.351 592.975,288.432 588.800 C 288.688 587.810,289.138 586.180,289.432 585.177 C 289.726 584.174,290.082 582.554,290.225 581.577 C 290.367 580.600,290.915 577.403,291.442 574.473 C 292.218 570.158,292.400 567.791,292.400 562.002 C 292.400 553.064,292.126 550.845,289.588 539.200 C 288.687 535.069,287.783 526.126,287.182 515.408 C 286.935 511.013,286.664 507.304,286.580 507.167 C 286.495 507.030,286.146 502.278,285.804 496.607 C 285.463 490.936,285.108 486.174,285.015 486.025 C 284.923 485.876,284.652 482.074,284.413 477.577 C 284.173 473.080,283.799 467.870,283.581 466.000 C 283.364 464.130,283.005 459.090,282.784 454.800 C 282.564 450.510,282.119 444.750,281.795 442.000 C 281.472 439.250,281.206 435.544,281.204 433.764 C 281.202 431.985,280.938 427.755,280.617 424.364 C 280.297 420.974,279.844 414.935,279.612 410.943 C 279.379 406.952,279.024 402.272,278.823 400.543 C 278.622 398.815,278.350 394.970,278.219 392.000 C 278.088 389.030,277.720 383.900,277.401 380.600 C 277.082 377.300,276.635 371.450,276.408 367.600 C 276.181 363.750,275.821 358.350,275.607 355.600 C 275.066 348.643,274.468 340.142,273.988 332.600 C 273.764 329.080,273.317 323.320,272.994 319.800 C 272.672 316.280,272.305 311.060,272.179 308.200 C 272.053 305.340,271.702 300.570,271.398 297.600 C 271.095 294.630,270.740 289.770,270.610 286.800 C 270.481 283.830,270.114 278.610,269.796 275.200 C 269.477 271.790,269.040 266.210,268.824 262.800 C 267.858 247.570,267.204 238.291,266.821 234.400 C 266.594 232.090,266.206 226.690,265.959 222.400 C 265.712 218.110,265.448 214.494,265.371 214.364 C 265.295 214.235,265.045 210.905,264.816 206.964 C 264.587 203.024,264.217 197.730,263.994 195.200 C 263.609 190.845,263.135 184.201,261.795 164.400 C 261.475 159.670,261.037 153.910,260.821 151.600 C 260.605 149.290,260.322 145.330,260.191 142.800 C 260.060 140.270,259.781 136.394,259.572 134.187 C 259.362 131.979,258.933 126.039,258.617 120.987 C 257.840 108.518,256.622 102.064,253.788 95.400 C 252.340 91.994,251.128 89.336,250.777 88.800 C 250.561 88.470,250.161 87.750,249.888 87.200 C 248.971 85.353,245.874 80.800,245.535 80.800 C 245.351 80.800,245.200 80.600,245.200 80.356 C 245.200 77.407,231.596 65.693,222.866 61.123 C 220.740 60.010,218.550 58.951,218.000 58.770 C 217.450 58.588,215.740 57.970,214.200 57.395 C 207.749 54.986,196.408 53.102,190.600 53.473 M198.721 100.537 C 203.317 102.320,205.770 104.081,208.015 107.211 C 209.669 109.515,210.078 110.273,211.444 113.560 C 212.426 115.922,212.467 123.128,211.510 125.200 C 211.154 125.970,210.740 127.027,210.589 127.550 C 210.101 129.239,207.087 133.236,205.017 134.941 C 190.122 147.204,168.047 133.435,172.619 114.732 C 175.425 103.254,188.042 96.393,198.721 100.537 M195.926 180.203 C 197.756 180.527,199.641 181.063,200.115 181.396 C 200.590 181.728,201.215 182.000,201.505 182.000 C 203.022 182.000,208.547 187.302,209.892 190.048 C 212.132 194.621,212.180 194.823,212.190 199.800 C 212.200 204.662,211.396 207.990,209.719 210.031 C 209.433 210.379,209.200 210.848,209.200 211.073 C 209.200 211.575,204.925 215.851,203.756 216.518 C 199.001 219.232,196.440 220.000,192.146 220.000 C 175.706 220.000,166.518 201.188,176.379 187.719 C 178.190 185.245,181.645 182.412,183.441 181.928 C 183.996 181.778,184.721 181.432,185.050 181.158 C 185.551 180.743,189.868 179.810,192.000 179.658 C 192.330 179.634,194.097 179.879,195.926 180.203 M198.800 261.265 C 203.513 262.824,210.400 268.679,210.400 271.126 C 210.400 271.283,210.798 272.129,211.285 273.006 C 212.739 275.626,212.599 284.926,211.059 288.000 C 209.106 291.897,208.799 292.349,206.600 294.547 C 200.438 300.710,190.954 302.245,183.400 298.304 C 167.183 289.842,169.472 266.130,187.000 261.014 C 188.320 260.629,189.580 260.245,189.800 260.162 C 190.783 259.790,196.439 260.483,198.800 261.265 M199.281 532.972 C 202.132 533.956,207.545 536.542,207.999 537.136 C 208.109 537.281,209.010 538.109,210.000 538.975 C 226.312 553.245,222.597 579.792,203.000 589.002 C 195.480 592.536,185.266 592.895,179.400 589.832 C 178.740 589.487,177.985 589.204,177.723 589.202 C 176.411 589.196,170.377 584.800,167.869 582.024 C 166.226 580.205,163.718 576.480,162.871 574.600 C 159.884 567.969,159.320 556.248,161.753 551.346 C 162.066 550.716,162.754 549.300,163.282 548.200 C 165.280 544.038,170.126 538.430,173.165 536.763 C 173.954 536.330,175.320 535.571,176.200 535.076 C 182.573 531.492,192.399 530.596,199.281 532.972 " stroke="none" fill="#676a79" fill-rule="evenodd"></path></g></svg>